<?xml version="1.0" encoding="UTF-8" standalone="no"?>
<svg
   width="90"
   height="22"
   viewBox="0 0 89.999998 22"
   fill="none"
   version="1.1"
   id="svg18"
   sodipodi:docname="fedora_whitelogo.svg"
   inkscape:version="1.4 (e7c3feb100, 2024-10-09)"
   xml:space="preserve"
   xmlns:inkscape="http://www.inkscape.org/namespaces/inkscape"
   xmlns:sodipodi="http://sodipodi.sourceforge.net/DTD/sodipodi-0.dtd"
   xmlns="http://www.w3.org/2000/svg"
   xmlns:svg="http://www.w3.org/2000/svg"><sodipodi:namedview
     id="namedview1"
     pagecolor="#ffffff"
     bordercolor="#000000"
     borderopacity="0.25"
     inkscape:showpageshadow="2"
     inkscape:pageopacity="0.0"
     inkscape:pagecheckerboard="0"
     inkscape:deskcolor="#d1d1d1"
     inkscape:zoom="9.5988211"
     inkscape:cx="33.910414"
     inkscape:cy="3.6983708"
     inkscape:window-width="2560"
     inkscape:window-height="1050"
     inkscape:window-x="0"
     inkscape:window-y="0"
     inkscape:window-maximized="1"
     inkscape:current-layer="g1" /><g
     id="g1"
     transform="matrix(1.1422913,0,0,1.1422913,2.2867623,1.1188993)"><g
       id="g2"
       transform="matrix(0.03459499,0,0,0.03459499,-0.07643675,-0.33448019)"><path
         d="m 3.0014,227.91 c -0.12108,-7.559 1.4074,-14.922 2.7767,-22.296 0.57594,-3.102 0.93087,-6.274 1.6652,-9.34 2.0816,-8.693 5.3736,-16.927 8.5501,-25.246 1.5336,-4.017 2.7393,-8.197 4.4205,-12.15 1.9618,-4.613 4.3974,-9.039 6.7113,-13.482 1.8555,-3.564 3.4538,-7.239 5.4418,-10.735 5.2868,-9.297 11.613,-18.266 17.776,-27 4.4003,-6.237 8.6065,-12.855 13.909,-18.376 9.3835,-9.7698 19.586,-18.234 30.037,-26.815 4.301,-3.5313 8.4113,-7.3728 12.822,-10.758 2.863,-2.1976 5.934,-4.1317 8.895,-6.1936 3.085,-2.1478 6.107,-4.4208 9.257,-6.4689 7.948,-5.1675 18.422,-10.987 27.106,-14.779 3.628,-1.5843 7.46,-2.7617 11.178,-4.1233 3.128,-1.1456 6.12,-2.6336 9.261,-3.7454 3.184,-1.127 6.487,-1.901 9.71,-2.9041 2.652,-0.825 5.259,-1.8302 7.927,-2.5957 2.249,-0.6456 4.565,-1.019 6.822,-1.6291 2.592,-0.70074 5.102,-1.6596 7.749,-2.1594 3.406,-0.64335 7.015,-0.10924 10.465,-0.62371 2.7,-0.40251 5.271,-1.458 7.951,-1.966 4.546,-0.86182 11.062,-1.2095 15.715,-1.3061 7.656,0.4324 15.566,0.17851 23.24,0.08251 3.147,-0.03939 6.528,0.23637 9.647,-0.07999 3.78,0.03331 7.527,0.33874 11.298,0.55994 2.78,0.16307 5.688,0.17304 8.432,0.66212 2.972,0.52981 5.825,1.6432 8.783,2.155 1.858,0.32126 3.784,0.23976 5.637,0.58886 2.663,0.50193 5.248,1.5069 7.881,2.1544 2.494,0.61312 5.042,0.98083 7.521,1.6671 8.06,2.2309 15.789,5.1276 23.561,8.1772 5.464,2.1441 11.149,3.7857 16.504,6.2092 6.79,3.0724 13.094,6.8856 19.509,10.651 3.14,1.8426 6.443,3.4377 9.539,5.3471 6.598,4.0693 12.794,8.7934 18.966,13.464 2.754,2.0843 5.672,3.9894 8.296,6.2391 2.751,2.3589 5.225,5.0008 7.89,7.4507 2.574,2.3661 5.216,4.6445 7.667,7.1404 6.208,6.3217 12.423,12.663 18.072,19.501 2.248,2.7202 4.257,5.632 6.44,8.404 1.474,1.872 3.093,3.636 4.524,5.541 2.102,2.798 3.91,5.835 5.927,8.698 5.329,7.563 9.971,15.01 14.402,23.146 1.384,2.542 2.893,5.053 4.104,7.68 2.844,6.164 4.644,12.658 6.777,19.078 1.572,4.733 3.495,9.349 5.043,14.089 1.253,3.837 2.17,7.808 3.167,11.717 0.911,3.565 1.914,7.143 2.667,10.743 0.812,3.882 1.344,7.843 2.001,11.755 0.878,5.223 1.76,10.526 1.886,15.831 -0.04,3.275 0.06,6.564 -0.045,9.836 -0.439,3.065 -0.139,6.433 -0.114,9.534 0.034,4.194 -0.077,8.41 0.128,12.598 l 0.035,4.083 c -0.129,3.426 -0.298,7.02 0.003,10.433 -0.002,1.256 -0.036,2.525 10e-4,3.781 -0.226,6.458 -1.286,12.745 -2.335,19.111 -1.835,11.132 -4.19,22.242 -7.704,32.988 -2.516,7.696 -5.667,15.218 -8.694,22.723 -1.906,4.726 -3.515,9.526 -5.754,14.116 -2.19,4.491 -4.915,8.606 -7.436,12.906 -4.156,7.089 -8.321,14.461 -13.085,21.172 -1.903,2.68 -4.146,5.146 -6.283,7.64 -3.91,4.564 -7.835,9.008 -11.914,13.418 -4.526,4.892 -8.733,9.83 -13.633,14.375 -5.119,4.748 -10.844,9.456 -16.546,13.469 -3.196,2.25 -6.618,4.174 -9.784,6.464 l -16.01,11.444 c -2.884,2.069 -5.636,4.383 -8.647,6.261 -9.277,5.79 -19.832,9.975 -29.947,14.043 -4.404,1.77 -8.646,3.71 -13.196,5.111 -4.647,1.432 -9.556,2.804 -14.294,3.853 -2.355,0.521 -4.761,0.787 -7.092,1.423 -9.09,2.478 -23.5,6.583 -32.813,6.6 -1.89,-0.145 -3.834,-0.048 -5.732,-0.102 -4.922,-0.141 -9.762,-0.308 -14.687,-0.145 -6.541,-0.268 -13.252,0.013 -19.807,0.021 -5.069,-0.046 -10.135,0.248 -15.208,0.232 -6.712,-0.657 -13.222,-2.255 -19.803,-3.616 -2.492,-0.516 -5.021,-0.887 -7.5,-1.461 -2.282,-0.528 -4.506,-1.307 -6.786,-1.853 -5.926,-1.419 -11.847,-2.748 -17.666,-4.597 -10.141,-3.269 -20.074,-7.148 -29.746,-11.616 -5.17,-2.36 -10.351,-4.721 -15.26,-7.598 -5.821,-3.412 -11.786,-7.292 -17.132,-11.404 -2.931,-2.254 -5.589,-4.851 -8.563,-7.052 -6.2527,-4.625 -12.701,-8.941 -18.724,-13.894 -3.8156,-3.138 -7.5875,-6.954 -10.978,-10.544 -1.8585,-1.968 -3.4778,-4.193 -5.2201,-6.265 l -9.9632,-11.712 c -1.7772,-2.068 -3.752,-3.964 -5.5183,-6.043 -1.7216,-2.027 -3.2524,-4.216 -4.923,-6.285 -1.538,-1.905 -3.2379,-3.672 -4.7597,-5.593 -1.6079,-2.028 -3.0415,-4.204 -4.5804,-6.287 -2.5273,-3.42 -5.1553,-6.805 -7.4704,-10.374 -2.4493,-3.776 -4.1914,-7.882 -6.2952,-11.847 -6.9545,-13.107 -13.595,-27.974 -16.969,-42.472 -1.8538,-7.967 -2.9205,-16.015 -3.994,-24.109 -0.47533,-3.584 -1.4602,-7.086 -2.0809,-10.645 -0.76761,-4.401 -1.07,-9.35 -0.95748,-13.816 0.34541,-3.62 0.00401,-7.531 -0.07891,-11.176 0.19035,-2.403 0.01921,-4.926 0.02626,-7.345 0.02324,-7.98 -0.33166,-16.058 0.01367,-24.025 -0.18807,-3.236 0.1437,-6.479 -0.00608,-9.719 z"
         fill="url(#c)"
         id="path2-3"
         style="fill:url(#c)" /><path
         d="m 250.07,22.228 c 128.83,-3.2338 235.89,98.606 239.08,227.44 3.195,128.84 -98.677,235.86 -227.51,239.01 C 132.86,491.833 25.89,390.013 22.7,261.238 19.5062,132.458 121.293,25.458 250.07,22.228 Z"
         fill="#030a11"
         id="path3-6" /><path
         d="m 241.69,144.32 c 3.301,-0.68 7.005,-0.671 10.378,-0.753 23.215,-0.57 49.071,5.604 69.824,15.953 2.89,1.442 5.893,2.807 8.594,4.583 0.075,0.049 0.147,0.1 0.221,0.15 1.671,1.845 4.495,3.051 6.536,4.528 2.823,2.044 5.542,4.297 8.243,6.502 5.292,4.32 10.437,9.158 15.052,14.195 1.609,1.755 3.008,3.694 4.607,5.441 0.299,0.327 0.431,0.571 0.594,0.976 1.492,5.015 4.197,9.29 6.619,13.873 1.733,3.326 3.268,6.751 4.599,10.257 7.868,20.449 6.979,36.168 22.587,54.238 3.372,3.903 7.067,7.72 11.331,10.645 -1.85,1.859 -3.431,4.077 -5.081,6.12 -2.041,2.527 -4.146,5.003 -6.311,7.426 3.995,4.401 7.253,10.535 11.701,14.336 -5.601,6.691 -12.431,11.676 -19.433,16.799 -24.011,17.564 -46.025,27.765 -74.509,35.929 -10.524,3.017 -21.49,5.661 -32.415,6.632 -3.795,0.338 -7.658,0.652 -11.469,0.631 -0.07,0.013 -0.14,0.029 -0.21,0.04 -8.256,1.328 -20.789,0.865 -29.261,0.491 -36.766,-1.708 -72.532,-12.524 -104.08,-31.477 -8.348,-4.914 -16.266,-10.44 -24.234,-15.937 -3.941,-2.271 -11.385,-9.446 -14.028,-13.085 5.074,-4.121 9.257,-9.513 13.611,-14.368 -4.859,-3.794 -9.067,-8.594 -13.118,-13.211 1.203,-0.692 2.363,-1.456 3.474,-2.287 18.475,-14.035 29.585,-37.355 35.823,-59.112 1.034,-3.604 2.18,-7.285 2.891,-10.967 0.907,-4.694 0.73,-9.437 1.387,-14.142 l 0.036,-0.243 c 3.306,-1.935 7.51,-7.803 10.168,-10.816 5.777,-6.546 11.993,-12.889 19.515,-17.409 1.996,-1.508 4.897,-3.017 6.367,-5.02 4.501,-3.038 9.652,-5.395 14.584,-7.636 7.856,-3.57 15.971,-6.95 24.334,-9.149 6.921,-1.82 14.033,-2.9 21.076,-4.133 z"
         fill="#fe7c19"
         id="path4-7" /><path
         d="m 241.69,144.32 c 3.301,-0.68 7.005,-0.671 10.378,-0.753 23.215,-0.57 49.071,5.604 69.824,15.953 2.89,1.442 5.893,2.807 8.594,4.583 0.075,0.049 0.147,0.1 0.221,0.15 1.671,1.845 4.495,3.051 6.536,4.528 2.823,2.044 5.542,4.297 8.243,6.502 5.292,4.32 10.437,9.158 15.052,14.195 1.609,1.755 3.008,3.694 4.607,5.441 0.299,0.327 0.431,0.571 0.594,0.976 1.492,5.015 4.197,9.29 6.619,13.873 1.733,3.326 3.268,6.751 4.599,10.257 7.868,20.449 6.979,36.168 22.587,54.238 3.372,3.903 7.067,7.72 11.331,10.645 -1.85,1.859 -3.431,4.077 -5.081,6.12 -2.041,2.527 -4.146,5.003 -6.311,7.426 3.995,4.401 7.253,10.535 11.701,14.336 -5.601,6.691 -12.431,11.676 -19.433,16.799 -24.011,17.564 -46.025,27.765 -74.509,35.929 -10.524,3.017 -21.49,5.661 -32.415,6.632 -3.795,0.338 -7.658,0.652 -11.469,0.631 -0.07,0.013 -0.14,0.029 -0.21,0.04 -8.256,1.328 -20.789,0.865 -29.261,0.491 -36.766,-1.708 -72.532,-12.524 -104.08,-31.477 -8.348,-4.914 -16.266,-10.44 -24.234,-15.937 4.262,-2.795 8.324,-9.852 12.719,-13.496 4.899,-4.254 12.314,-10.966 17.8,-14.045 -7.488,-2.541 -15.156,-5.857 -21.881,-9.994 4.921,-1.682 10.014,-5.082 14.674,-7.511 18.029,-7.786 33.421,-11.348 53.038,-11.28 10.167,0.035 19.055,0.599 29.073,2.674 11.042,2.286 21.6,6.196 32.236,9.838 9.882,3.384 19.881,6.96 30.042,9.407 16.448,3.961 34.739,5.295 51.555,3.228 1.613,4.84 5.624,9.71 9.959,12.371 4.392,2.697 9.827,4.138 14.918,2.861 7.888,-1.977 13.897,-8.744 17.959,-15.432 3.127,-1.169 6.396,-1.953 9.558,-3.026 2.766,-0.939 5.423,-2.195 8.122,-3.31 -3.347,-4.572 -6.968,-9.218 -9.923,-14.041 -3.506,-5.724 -6.257,-12.126 -8.695,-18.359 -2.099,-5.369 -3.388,-10.993 -5.109,-16.483 -4.112,-13.113 -9.739,-25.629 -18.296,-36.457 -17.66,-22.347 -43.914,-38.475 -72.221,-42.738 -4.958,-0.746 -10.045,-1.542 -15.06,-1.771 -4.795,-0.219 -9.602,0.096 -14.38,-0.458 -4.056,-3.636 -7.408,-8.787 -9.968,-13.556 z"
         fill="#fefefe"
         id="path5-5" /><path
         d="m 115.57,325.9 c 4.262,-2.795 8.324,-9.852 12.719,-13.496 1.316,2.05 11.273,8.32 14.04,10.018 20.678,12.845 42.89,23.037 66.114,30.335 11.314,3.506 22.664,6.896 34.047,10.169 2.771,0.807 5.61,1.372 8.361,2.25 4.777,1.526 9.626,3.027 14.304,4.832 1.79,0.691 4.382,2.235 5.98,2.658 0.436,0.115 0.897,0.06 1.34,0.064 0.292,0.003 0.592,0.035 0.883,0.053 -0.07,0.013 -0.14,0.029 -0.21,0.04 -8.256,1.328 -20.789,0.865 -29.261,0.491 -36.766,-1.708 -72.532,-12.524 -104.08,-31.477 -8.348,-4.914 -16.266,-10.44 -24.234,-15.937 z"
         fill="#ddb99d"
         id="path6-3" /><path
         d="m 145.64,198.48 c 3.306,-1.935 7.51,-7.803 10.168,-10.816 5.777,-6.546 11.993,-12.889 19.515,-17.409 1.162,1.32 3.044,2.272 4.53,3.228 3.765,2.423 7.663,4.738 10.771,8.007 -19.76,15.257 -28.517,31.198 -36.248,54.577 -2.367,7.16 -4.277,14.348 -6.931,21.432 -1.21,3.295 -2.505,6.558 -3.885,9.785 -1.247,2.891 -4.565,8.46 -4.804,11.389 -0.058,0.703 0.048,1.475 0.12,2.176 -4.66,2.429 -9.753,5.829 -14.674,7.511 6.725,4.137 14.393,7.453 21.881,9.994 -5.486,3.079 -12.901,9.791 -17.8,14.045 -4.395,3.644 -8.457,10.701 -12.719,13.496 -3.941,-2.271 -11.385,-9.446 -14.028,-13.085 5.074,-4.121 9.257,-9.513 13.611,-14.368 -4.859,-3.794 -9.067,-8.594 -13.118,-13.211 1.203,-0.692 2.363,-1.456 3.474,-2.287 18.475,-14.035 29.585,-37.355 35.823,-59.112 1.034,-3.604 2.18,-7.285 2.891,-10.967 0.907,-4.694 0.73,-9.437 1.387,-14.142 z"
         fill="#c54d00"
         id="path7-5" /><path
         d="m 333.64,267.45 0.201,-0.944 c 0.166,-0.101 0.31,-0.254 0.499,-0.303 1.096,-0.281 7.122,0.063 8.67,0.062 11.762,-0.008 23.569,-0.242 35.326,0.044 -0.123,5.834 -0.035,11.675 -0.207,17.506 -0.078,2.645 -0.914,8.551 -0.465,10.706 -4.062,6.688 -10.071,13.455 -17.959,15.432 -5.091,1.277 -10.526,-0.164 -14.918,-2.861 -4.335,-2.661 -8.346,-7.531 -9.959,-12.371 -1.191,-4.8 -1.082,-9.672 -1.103,-14.58 -0.128,-4.225 -0.073,-8.464 -0.085,-12.691 z"
         fill="#030a11"
         id="path8-6" /><path
         d="m 290.7,261.25 c 3.125,-1.873 6.302,-3.465 9.795,-4.536 2.235,-0.685 5.555,-1.679 7.905,-1.381 3.363,0.427 20.135,8.655 24.205,10.862 0.787,0.427 0.758,0.363 1.028,1.255 0.012,4.227 -0.043,8.466 0.085,12.691 -0.04,-0.008 -0.081,-0.017 -0.121,-0.024 -3.627,-0.663 -7.009,-2.902 -10.346,-4.416 l -18.404,-8.391 c -4.655,-2.13 -9.299,-4.4 -14.147,-6.06 z"
         fill="#fefefe"
         id="path9-2" /><path
         d="m 216.7,217.81 c 10.67,-0.965 20.084,6.948 20.966,17.626 0.882,10.678 -7.105,20.029 -17.789,20.827 -10.567,0.79 -19.793,-7.09 -20.665,-17.65 -0.873,-10.56 6.935,-19.847 17.488,-20.803 z"
         fill="#030a11"
         id="path10-9" /><path
         d="m 336.94,217.96 c 10.568,-0.48 19.502,7.743 19.899,18.314 0.397,10.571 -7.896,19.44 -18.47,19.753 -10.456,0.31 -19.206,-7.871 -19.598,-18.324 -0.393,-10.454 7.719,-19.268 18.169,-19.743 z"
         fill="#030a11"
         id="path11-1" /><path
         d="m 120.46,101.96 c 0.182,0.223 0.238,0.259 0.339,0.574 0.666,2.087 0.256,25.73 0.25,29.966 l -0.058,39.261 c 0.003,8.181 0.147,16.397 -0.063,24.575 -0.079,3.102 -0.218,6.197 -0.698,9.268 -1.83,11.72 -7.069,26.949 -12.912,37.246 -7.5449,13.297 -16.96,22.626 -28.876,32.003 -2.9016,2.284 -6.1156,5.319 -9.7237,6.327 3.1698,3.89 6.086,7.982 9.0702,12.014 2.2453,3.034 4.6474,6.606 7.5353,9.048 -4.5241,7.193 -10.219,13.517 -15.055,20.493 3.9886,2.776 7.4609,6.482 11.201,9.604 3.5749,2.984 7.6453,5.356 11.352,8.171 3.6187,2.749 6.8533,5.968 10.55,8.629 6.148,4.426 12.763,8.308 19.205,12.29 3.683,2.277 7.598,4.442 10.854,7.311 -1.667,4.507 -2.178,9.571 -3.201,14.265 -1.836,8.502 -3.854,16.963 -6.052,25.378 -0.318,1.432 -0.516,2.886 -0.736,4.335 -2.966,-2.793 -6.373,-5.132 -9.364,-7.945 -13.522,-12.581 -25.316,-26.899 -35.076,-42.579 -16.27,-26.399 -26.32,-56.154 -29.386,-87.011 -0.7056,-6.485 -1.3552,-13.002 -1.3708,-19.533 -0.0331,-13.755 2.1396,-31.019 5.3281,-44.431 8.5854,-36.113 23.072,-64.812 48.338,-92.198 4.885,-5.295 12.566,-13.382 18.549,-17.061 z"
         fill="url(#b)"
         id="path12-2"
         style="fill:url(#b)" /><path
         d="m 391.28,132.02 c -0.13,-6.503 -0.148,-12.967 -0.151,-19.469 -0.001,-3.393 -0.294,-7.105 0.152,-10.467 1.073,-0.1 1.957,0.69 2.755,1.345 9.407,7.718 17.407,16.339 25.08,25.743 17.014,20.855 26.495,39.095 34.369,64.741 3.122,10.169 5.681,20.29 7.269,30.823 0.842,5.588 1.268,11.284 1.791,16.911 1.079,11.63 0.648,22.762 -0.555,34.355 -0.41,3.942 -0.702,7.931 -1.315,11.846 -4.609,29.822 -15.862,58.226 -32.926,83.113 -2.482,3.576 -4.946,7.172 -7.732,10.521 -7.081,8.511 -15.373,17.633 -23.671,24.951 -2.291,2.021 -4.847,3.68 -7.182,5.63 -1.532,-5.084 -12.025,-41.689 -11.415,-43.744 2.357,-2.511 9.93,-5.768 13.32,-7.773 4.831,-2.86 9.622,-5.91 14.292,-9.024 5.753,-3.835 10.806,-8.189 16.167,-12.516 3.079,-2.484 6.295,-4.806 9.325,-7.35 3.538,-2.971 6.87,-6.246 10.604,-8.972 -5.11,-6.822 -10.444,-13.458 -15.441,-20.364 2.42,-2.393 16.445,-19.686 16.469,-21.085 0,-0.022 -0.004,-0.044 -0.007,-0.066 -8.366,-6.193 -16.744,-12.259 -23.993,-19.782 -12.002,-12.456 -17.194,-26.197 -22.417,-42.355 -1.748,-5.408 -3.648,-10.779 -4.427,-16.432 -1.048,-7.601 -0.455,-16.669 -0.478,-24.445 -0.045,-15.368 -0.134,-30.769 0.117,-46.135 z"
         fill="#4a4d57"
         id="path13-7" /><path
         d="m 391.45,126.51 c 3.182,2.901 5.943,6.245 8.764,9.49 19.602,22.551 32.66,49.069 39.635,78.087 1.937,8.057 3.658,16.777 4.023,25.061 0.328,7.415 1.301,37.33 -1.398,42.017 -8.366,-6.193 -16.744,-12.259 -23.993,-19.782 -12.002,-12.456 -17.194,-26.197 -22.417,-42.355 -1.748,-5.408 -3.648,-10.779 -4.427,-16.432 -1.048,-7.601 -0.455,-16.669 -0.478,-24.445 -0.045,-15.368 -0.134,-30.769 0.117,-46.135 0.343,-1.825 0.214,-3.659 0.174,-5.506 z"
         fill="#707279"
         id="path14-0" /><path
         d="m 153.89,77.152 c 4.124,-1.9102 7.984,-4.9192 12.056,-7.0762 10.203,-5.4058 20.832,-9.5325 31.86,-12.924 45.559,-14.113 94.703,-11.109 138.2,8.448 4.563,2.0007 9.238,4.0363 13.582,6.4806 2.647,1.4892 5.093,3.3317 7.784,4.7343 l 0.266,0.1357 c -5.46,1.6958 -10.264,4.1905 -15.229,7.0011 -2.196,1.2431 -4.36,2.617 -6.646,3.6874 -17.029,10.163 -33.221,21.314 -47.335,35.352 -5.945,-0.463 -11.772,-1.758 -17.671,-2.563 -6.245,-0.852 -12.707,-1.002 -19,-0.793 -4.529,0.136 -9.044,0.574 -13.515,1.31 -4.891,0.762 -9.87,1.85 -14.841,1.734 -10.177,-11.508 -33.34,-28.166 -47.21,-34.793 -1.615,-0.5444 -3.275,-1.5947 -4.789,-2.3916 -5.5,-2.896 -11.484,-6.8856 -17.515,-8.3421 z"
         fill="#707279"
         id="path15-9" /><path
         d="m 153.89,77.152 c 4.124,-1.9102 7.984,-4.9192 12.056,-7.0762 10.203,-5.4058 20.832,-9.5325 31.86,-12.924 45.559,-14.113 94.703,-11.109 138.2,8.448 4.563,2.0007 9.238,4.0363 13.582,6.4806 2.647,1.4892 5.093,3.3317 7.784,4.7343 l 0.266,0.1357 c -5.46,1.6958 -10.264,4.1905 -15.229,7.0011 -2.196,1.2431 -4.36,2.617 -6.646,3.6874 -1.249,-1.6175 -5.442,-2.5662 -7.393,-3.3664 -2.416,-0.9908 -4.78,-2.1188 -7.218,-3.0544 -15.38,-5.9394 -31.404,-10.053 -47.743,-12.255 -5.564,-0.6964 -11.301,-0.7136 -16.9,-0.7208 -5.936,-0.0077 -11.953,-0.1169 -17.864,0.4799 -4,0.4038 -7.981,1.2984 -11.928,2.0623 -13.887,2.6881 -26.443,6.3145 -39.453,11.933 -1.946,0.8403 -9.606,3.6735 -10.711,4.7116 -0.167,0.1566 -0.239,0.2786 -0.362,0.4577 -1.615,-0.5444 -3.275,-1.5947 -4.789,-2.3916 -5.5,-2.896 -11.484,-6.8856 -17.515,-8.3421 z"
         fill="#4a4d57"
         id="path16" /><path
         d="m 344.26,383.39 c 2.702,-1.295 7.745,-4.281 10.543,-4.352 0.493,0.381 0.673,0.781 0.836,1.366 0.498,1.777 0.651,3.718 1.031,5.532 0.697,3.327 1.559,6.634 2.414,9.923 1.543,5.863 3.163,11.706 4.86,17.527 1.446,4.881 3.221,9.772 3.85,14.84 l 0.028,0.24 c -7.582,3.531 -14.654,8.158 -22.25,11.752 -26.936,12.744 -56.577,20.514 -86.46,20.559 -6.8,0.01 -16.307,0.495 -22.827,-1.036 -9.362,-8.176 -15.895,-26.823 -19.006,-38.724 -0.675,-2.582 -0.96,-5.234 -1.613,-7.816 l -0.069,-0.268 -0.029,-0.137 c -0.578,-5.698 -0.542,-11.617 -0.629,-17.344 3.849,0.887 9.367,1.201 13.492,1.763 19.865,2.707 39.56,2.22 59.423,-0.262 5.494,-0.687 10.963,-1.344 16.39,-2.458 13.581,-2.787 26.843,-6.826 40.016,-11.105 z"
         fill="#fefefe"
         id="path17" /><path
         d="m 214.94,395.45 c 3.849,0.887 9.367,1.201 13.492,1.763 19.865,2.707 39.56,2.22 59.423,-0.262 5.494,-0.687 10.963,-1.344 16.39,-2.458 13.581,-2.787 26.843,-6.826 40.016,-11.105 -0.053,0.047 -0.108,0.093 -0.161,0.141 -0.438,0.397 -0.714,0.724 -0.993,1.245 -5.002,9.35 -35.98,20.871 -46.693,24.024 -14.541,4.279 -31.995,6.399 -47.187,6.217 -7.982,-0.096 -15.842,-0.797 -23.784,-1.492 -3.258,-0.285 -6.615,-0.153 -9.845,-0.592 l -0.029,-0.137 c -0.578,-5.698 -0.542,-11.617 -0.629,-17.344 z"
         fill="#ddb99d"
         id="path18" /><path
         d="m 144.92,428.73 c 0.034,-0.343 0.074,-0.685 0.119,-1.026 1.102,-8.306 3.948,-17.498 5.852,-25.768 l 3.955,-16.693 c 0.412,-1.741 0.533,-3.671 1.069,-5.351 0.188,-0.588 0.302,-0.734 0.77,-1.095 3.892,0.081 14.545,5.333 19.234,7.074 4.015,1.491 8.148,2.751 12.256,3.962 8.761,2.584 17.966,3.313 26.764,5.619 0.087,5.727 0.051,11.646 0.629,17.344 l 0.029,0.137 0.069,0.268 c 0.653,2.582 0.938,5.234 1.613,7.816 3.111,11.901 9.644,30.548 19.006,38.724 -3.825,0.141 -8.051,-0.897 -11.824,-1.524 -10.404,-1.73 -20.713,-3.753 -30.777,-6.982 -4.893,-1.569 -9.568,-3.533 -14.376,-5.309 -11.844,-4.308 -23.799,-10.359 -34.388,-17.196 z"
         fill="#c54d00"
         id="path19" /><path
         d="m 178.02,403.82 c 7.481,1.285 31.586,10.197 37.551,8.976 l 0.029,0.137 0.069,0.268 c 0.653,2.582 0.938,5.234 1.613,7.816 3.111,11.901 9.644,30.548 19.006,38.724 -3.825,0.141 -8.051,-0.897 -11.824,-1.524 -10.404,-1.73 -20.713,-3.753 -30.777,-6.982 -4.893,-1.569 -9.568,-3.533 -14.376,-5.309 0.008,-0.097 0.017,-0.194 0.022,-0.292 0.009,-0.153 0.013,-0.307 0.023,-0.46 0.137,-2.23 -0.685,-4.634 -1.048,-6.842 -0.363,-2.212 -0.568,-4.464 -0.696,-6.702 -0.297,-5.189 -0.501,-10.484 -0.31,-15.681 0.15,-4.048 0.591,-8.08 0.718,-12.129 z"
         fill="#fe7c19"
         id="path20" /><path
         d="m 145.19,99.305 c 5.871,2.5317 11.483,6.1817 16.633,9.9537 6.865,4.181 13.455,8.724 20.084,13.262 5.04,3.141 10.695,6.795 14.427,11.458 -3.426,2.091 -12.475,5.532 -14.515,8.553 -0.864,2.814 -0.367,19.062 -0.128,22.706 -1.47,2.003 -4.371,3.512 -6.367,5.02 -7.522,4.52 -13.738,10.863 -19.515,17.409 -2.658,3.013 -6.862,8.881 -10.168,10.816 0.135,-2.184 -0.056,-4.415 -0.071,-6.606 l 0.021,-12.621 0.107,-38.919 0.006,-23.452 c 0.03,-5.652 0.456,-12.025 -0.514,-17.58 z"
         fill="#ddb99d"
         id="path21" /><path
         d="m 161.83,109.26 c 6.865,4.181 13.455,8.724 20.084,13.262 5.04,3.141 10.695,6.795 14.427,11.458 -3.426,2.091 -12.475,5.532 -14.515,8.553 -0.378,0.265 -0.23,0.214 -0.573,0.312 -6.291,1.794 -14.003,11.019 -20.839,14.367 0.365,-11.188 0.086,-22.413 0.216,-33.609 0.046,-3.948 -0.302,-8.41 0.27,-12.293 0.148,-1.01 0.249,-1.3 0.93,-2.05 z"
         fill="#fefefe"
         id="path22" /><path
         d="m 181.91,122.52 c 5.04,3.141 10.695,6.795 14.427,11.458 -3.426,2.091 -12.475,5.532 -14.515,8.553 -0.003,-0.043 -0.002,-0.087 -0.01,-0.129 -0.06,-0.309 -0.137,-0.624 -0.207,-0.931 -0.365,-1.62 -0.293,-15.423 -0.116,-17.583 0.043,-0.521 0.2,-0.902 0.421,-1.368 z"
         fill="#ddb99d"
         id="path23" /><path
         d="m 328.77,123.38 c 7.058,-5.422 14.49,-10.344 21.949,-15.195 5.008,-3.257 10.02,-6.777 15.525,-9.1501 -0.335,8.4371 -0.204,16.916 -0.189,25.36 0.009,5.196 -0.187,10.46 -0.016,15.649 -0.092,18.596 0.331,37.268 -0.301,55.848 -0.163,-0.405 -0.295,-0.649 -0.594,-0.976 -1.599,-1.747 -2.998,-3.686 -4.607,-5.441 -4.615,-5.037 -9.76,-9.875 -15.052,-14.195 -2.701,-2.205 -5.42,-4.458 -8.243,-6.502 -2.041,-1.477 -4.865,-2.683 -6.536,-4.528 0.118,-2.464 -0.073,-5.022 -0.047,-7.506 0.051,-4.7 0.342,-9.525 -0.078,-14.205 l -0.324,-0.955 c -4.846,-2.24 -9.306,-5.648 -14.655,-6.564 2.68,-4.98 8.495,-8.621 13.168,-11.64 z"
         fill="#fefefe"
         id="path24" /><path
         d="m 351.23,140.15 c 4.941,-0.017 9.872,-0.405 14.813,-0.102 -0.092,18.596 0.331,37.268 -0.301,55.848 -0.163,-0.405 -0.295,-0.649 -0.594,-0.976 -1.599,-1.747 -2.998,-3.686 -4.607,-5.441 -4.615,-5.037 -9.76,-9.875 -15.052,-14.195 -2.701,-2.205 -5.42,-4.458 -8.243,-6.502 -2.041,-1.477 -4.865,-2.683 -6.536,-4.528 0.118,-2.464 -0.073,-5.022 -0.047,-7.506 0.051,-4.7 0.342,-9.525 -0.078,-14.205 4.687,1.637 8.687,5.632 12.68,8.502 2.66,1.911 5.424,3.518 8.3,5.069 -0.064,-5.32 -0.277,-10.641 -0.335,-15.964 z"
         fill="#ddb99d"
         id="path25" /><path
         d="m 315.6,135.02 c 2.68,-4.98 8.495,-8.621 13.168,-11.64 0.372,0.611 0.773,1.235 0.881,1.954 0.228,1.525 0.801,15 0.606,16.25 -4.846,-2.24 -9.306,-5.648 -14.655,-6.564 z"
         fill="#ddb99d"
         id="path26" /></g><text
       xml:space="preserve"
       style="font-style:normal;font-variant:normal;font-weight:normal;font-stretch:normal;font-size:12.4284px;font-family:MuseoModerno;-inkscape-font-specification:MuseoModerno;text-align:start;writing-mode:lr-tb;direction:ltr;text-anchor:start;fill:#1a1a1a;stroke-width:1.0357"
       x="18.472744"
       y="13.010315"
       id="text2"><tspan
         sodipodi:role="line"
         id="tspan2"
         style="stroke-width:1.0357"
         x="18.472744"
         y="13.010315"><tspan
           style="font-style:normal;font-variant:normal;font-weight:800;font-stretch:normal;font-family:MuseoModerno;-inkscape-font-specification:'MuseoModerno Ultra-Bold';fill:#c04b03;fill-opacity:1;stroke-width:1.0357"
           id="tspan4">Fp</tspan><tspan
           style="font-style:normal;font-variant:normal;font-weight:900;font-stretch:normal;font-family:MuseoModerno;-inkscape-font-specification:'MuseoModerno Heavy';fill:#ffffff;fill-opacity:1;stroke-width:1.0357"
           id="tspan5">tbb</tspan><tspan
           style="fill:#ffffff;fill-opacity:1"
           id="tspan7"> </tspan><tspan
           style="font-style:italic;font-variant:normal;font-weight:900;font-stretch:normal;font-family:MuseoModerno;-inkscape-font-specification:'MuseoModerno Heavy Italic';fill:#ffffff;fill-opacity:1;stroke-width:1.0357"
           id="tspan6">OS</tspan></tspan></text><text
       xml:space="preserve"
       transform="matrix(0.87543344,0,0,0.87543344,-2.0019082,-0.97952186)"
       id="text3"
       style="fill:#1a1a1a;text-orientation:auto;text-align:start;writing-mode:lr-tb;direction:ltr;-inkscape-font-specification:MuseoModerno;font-family:MuseoModerno;font-weight:normal;font-style:normal;font-stretch:normal;font-variant:normal;white-space:pre;shape-inside:url(#rect3)" /></g><defs
     id="defs18"><rect
       x="23.857096"
       y="-5.6256908"
       width="75.009211"
       height="36.879529"
       id="rect3" /><linearGradient
       id="paint0_linear_1016_57"
       x1="100"
       y1="100"
       x2="508"
       y2="508"
       gradientUnits="userSpaceOnUse"
       gradientTransform="matrix(0.04240317,0,0,0.04240317,-4.2403167,-4.2403167)"><stop
         offset="0.0684898"
         stop-color="#0047AB"
         id="stop15" /><stop
         offset="0.741212"
         stop-color="#8A2BE2"
         id="stop16" /></linearGradient><linearGradient
       id="paint1_linear_1016_57"
       x1="1459.63"
       y1="161.55"
       x2="1459.63"
       y2="218.53"
       gradientUnits="userSpaceOnUse"
       gradientTransform="matrix(0.04240317,0,0,0.04240317,-4.2403167,-4.2403167)"><stop
         stop-color="#59CAFD"
         id="stop17" /><stop
         offset="1"
         stop-color="#2B50EF"
         id="stop18" /></linearGradient><linearGradient
       id="c"
       x1="263.79"
       x2="247.47"
       y1="509.22"
       y2="3.3396"
       gradientUnits="userSpaceOnUse"><stop
         stop-color="#C18259"
         offset="0"
         id="stop1" /><stop
         stop-color="#ECB282"
         offset="1"
         id="stop2" /></linearGradient><linearGradient
       id="b"
       x1="48.381"
       x2="145.41"
       y1="269.34"
       y2="253.13"
       gradientUnits="userSpaceOnUse"><stop
         stop-color="#4B4E58"
         offset="0"
         id="stop11" /><stop
         stop-color="#707279"
         offset="1"
         id="stop12" /></linearGradient><linearGradient
       id="a"
       x1="253.58"
       x2="254.34"
       y1="512.11"
       y2="507.94"
       gradientUnits="userSpaceOnUse"><stop
         stop-color="#AD8E75"
         stop-opacity=".83137"
         offset="0"
         id="stop28" /><stop
         stop-color="#B38B74"
         stop-opacity=".86275"
         offset="1"
         id="stop29" /></linearGradient></defs></svg>
