<?xml version="1.0" encoding="UTF-8" standalone="no"?>
<svg
   width="500"
   height="500"
   viewBox="0 0 500 500"
   fill="none"
   version="1.1"
   id="svg8"
   sodipodi:docname="fedora-logo-sprite.svg"
   inkscape:export-filename="../Documents/system-logo-white.png"
   inkscape:export-xdpi="48.383999"
   inkscape:export-ydpi="48.383999"
   inkscape:version="1.4 (e7c3feb100, 2024-10-09)"
   xml:space="preserve"
   xmlns:inkscape="http://www.inkscape.org/namespaces/inkscape"
   xmlns:sodipodi="http://sodipodi.sourceforge.net/DTD/sodipodi-0.dtd"
   xmlns="http://www.w3.org/2000/svg"
   xmlns:svg="http://www.w3.org/2000/svg"><sodipodi:namedview
     id="namedview8"
     pagecolor="#ffffff"
     bordercolor="#000000"
     borderopacity="0.25"
     inkscape:showpageshadow="2"
     inkscape:pageopacity="0.0"
     inkscape:pagecheckerboard="0"
     inkscape:deskcolor="#d1d1d1"
     inkscape:zoom="1.39"
     inkscape:cx="250.35971"
     inkscape:cy="249.28058"
     inkscape:window-width="2560"
     inkscape:window-height="1050"
     inkscape:window-x="0"
     inkscape:window-y="0"
     inkscape:window-maximized="1"
     inkscape:current-layer="svg8" /><defs
     id="defs8"><linearGradient
       id="paint0_linear_1016_105"
       x1="50"
       y1="50"
       x2="550"
       y2="550"
       gradientUnits="userSpaceOnUse"
       gradientTransform="translate(-50,-50)"><stop
         offset="0.0684898"
         stop-color="#0047AB"
         id="stop7" /><stop
         offset="0.741212"
         stop-color="#8A2BE2"
         id="stop8" /></linearGradient><linearGradient
       id="a"
       x1="263.79"
       x2="247.47"
       y1="509.22"
       y2="3.34"
       gradientUnits="userSpaceOnUse"><stop
         offset="0"
         stop-color="#C18259"
         id="stop1" /><stop
         offset="1"
         stop-color="#ECB282"
         id="stop2" /></linearGradient><linearGradient
       id="b"
       x1="48.38"
       x2="145.41"
       y1="269.34"
       y2="253.13"
       gradientUnits="userSpaceOnUse"><stop
         offset="0"
         stop-color="#4B4E58"
         id="stop10" /><stop
         offset="1"
         stop-color="#707279"
         id="stop11" /></linearGradient></defs><g
     id="g1"
     transform="matrix(0.98150497,0,0,0.98293991,-0.51966017,-1.6600132)"><path
       fill="url(#a)"
       d="m 3,227.91 c -0.12,-7.56 1.4,-14.92 2.78,-22.3 0.57,-3.1 0.93,-6.27 1.66,-9.34 2.08,-8.69 5.38,-16.92 8.55,-25.24 1.54,-4.02 2.74,-8.2 4.42,-12.15 1.97,-4.62 4.4,-9.04 6.72,-13.48 1.85,-3.57 3.45,-7.24 5.44,-10.74 5.28,-9.3 11.61,-18.26 17.77,-27 4.4,-6.24 8.61,-12.85 13.91,-18.37 9.39,-9.77 19.59,-18.24 30.04,-26.82 4.3,-3.53 8.41,-7.37 12.82,-10.76 2.86,-2.2 5.94,-4.13 8.9,-6.2 3.08,-2.14 6.1,-4.41 9.25,-6.46 a 204,204 0 0 1 27.1,-14.78 c 3.64,-1.58 7.47,-2.76 11.19,-4.12 3.13,-1.15 6.12,-2.64 9.26,-3.75 3.18,-1.13 6.49,-1.9 9.7,-2.9 2.66,-0.83 5.27,-1.83 7.94,-2.6 2.24,-0.64 4.56,-1.02 6.82,-1.63 2.59,-0.7 5.1,-1.66 7.75,-2.16 3.4,-0.64 7.01,-0.1 10.46,-0.62 2.7,-0.4 5.27,-1.46 7.95,-1.97 4.55,-0.86 11.06,-1.2 15.72,-1.3 7.65,0.43 15.56,0.18 23.24,0.08 3.14,-0.04 6.53,0.24 9.64,-0.08 3.78,0.03 7.53,0.34 11.3,0.56 2.78,0.16 5.69,0.17 8.43,0.66 2.98,0.53 5.83,1.65 8.79,2.16 1.86,0.32 3.78,0.24 5.63,0.59 2.67,0.5 5.25,1.5 7.89,2.15 2.49,0.61 5.04,0.98 7.52,1.67 8.06,2.23 15.79,5.13 23.56,8.17 5.46,2.15 11.15,3.8 16.5,6.21 6.8,3.08 13.1,6.89 19.51,10.66 3.14,1.84 6.44,3.43 9.54,5.34 6.6,4.07 12.8,8.8 18.97,13.47 2.75,2.08 5.67,3.99 8.3,6.24 2.74,2.35 5.22,5 7.88,7.45 2.58,2.36 5.22,4.64 7.67,7.14 6.2,6.32 12.42,12.66 18.07,19.5 2.25,2.72 4.26,5.63 6.44,8.4 1.47,1.87 3.1,3.64 4.52,5.54 2.1,2.8 3.91,5.84 5.93,8.7 a 233,233 0 0 1 14.4,23.15 c 1.39,2.54 2.9,5.05 4.1,7.68 2.85,6.16 4.65,12.65 6.78,19.07 1.58,4.74 3.5,9.35 5.05,14.1 1.25,3.83 2.17,7.8 3.16,11.71 0.91,3.57 1.92,7.14 2.67,10.74 0.81,3.89 1.34,7.85 2,11.76 0.88,5.22 1.76,10.52 1.89,15.83 -0.04,3.27 0.06,6.56 -0.05,9.84 -0.44,3.06 -0.14,6.43 -0.11,9.53 0.03,4.2 -0.08,8.4 0.13,12.6 l 0.03,4.08 c -0.13,3.43 -0.3,7.02 0,10.43 0,1.26 -0.03,2.53 0,3.78 -0.22,6.46 -1.28,12.75 -2.33,19.12 -1.83,11.13 -4.19,22.24 -7.7,32.98 -2.52,7.7 -5.67,15.22 -8.7,22.73 -1.9,4.72 -3.51,9.52 -5.75,14.11 -2.2,4.5 -4.92,8.6 -7.44,12.9 -4.15,7.1 -8.32,14.47 -13.08,21.18 -1.9,2.68 -4.15,5.15 -6.29,7.64 -3.9,4.56 -7.83,9 -11.9,13.42 -4.54,4.89 -8.74,9.83 -13.64,14.37 a 162,162 0 0 1 -16.55,13.47 c -3.2,2.25 -6.62,4.18 -9.78,6.47 l -16.01,11.44 c -2.89,2.07 -5.64,4.38 -8.65,6.26 -9.28,5.8 -19.83,9.98 -29.95,14.04 -4.4,1.77 -8.64,3.71 -13.2,5.12 -4.64,1.43 -9.55,2.8 -14.29,3.85 -2.35,0.52 -4.76,0.79 -7.09,1.42 -9.09,2.48 -23.5,6.58 -32.81,6.6 -1.9,-0.14 -3.83,-0.05 -5.73,-0.1 -4.92,-0.14 -9.76,-0.3 -14.69,-0.15 -6.54,-0.26 -13.25,0.02 -19.8,0.03 -5.08,-0.05 -10.14,0.24 -15.22,0.23 -6.7,-0.66 -13.22,-2.26 -19.8,-3.62 -2.49,-0.51 -5.02,-0.89 -7.5,-1.46 -2.28,-0.53 -4.5,-1.3 -6.78,-1.85 -5.93,-1.42 -11.85,-2.75 -17.67,-4.6 a 264,264 0 0 1 -29.75,-11.62 c -5.17,-2.36 -10.35,-4.72 -15.26,-7.6 a 167,167 0 0 1 -17.13,-11.4 c -2.93,-2.25 -5.59,-4.85 -8.56,-7.05 -6.25,-4.62 -12.7,-8.94 -18.73,-13.9 A 125,125 0 0 1 75.78,435.62 c -1.86,-1.97 -3.48,-4.2 -5.22,-6.26 l -9.97,-11.71 c -1.77,-2.07 -3.75,-3.97 -5.51,-6.05 -1.73,-2.02 -3.26,-4.21 -4.93,-6.28 -1.54,-1.9 -3.24,-3.67 -4.76,-5.6 -1.6,-2.02 -3.04,-4.2 -4.58,-6.28 -2.53,-3.42 -5.15,-6.8 -7.47,-10.38 -2.45,-3.77 -4.19,-7.88 -6.3,-11.84 C 20.09,358.11 13.45,343.24 10.08,328.74 8.22,320.78 7.16,312.73 6.08,304.64 5.61,301.05 4.62,297.54 4,293.99 A 73,73 0 0 1 3.05,280.17 c 0.34,-3.62 0,-7.53 -0.08,-11.17 0.19,-2.4 0.02,-4.93 0.02,-7.35 0.03,-7.98 -0.33,-16.05 0.02,-24.02 -0.2,-3.24 0.14,-6.48 -0.01,-9.72"
       id="path2"
       style="fill:url(#a)" /><path
       fill="#030a11"
       d="m 250.07,22.23 c 128.83,-3.24 235.89,98.6 239.08,227.44 3.19,128.84 -98.68,235.86 -227.51,239 C 132.86,491.84 25.89,390.02 22.7,261.25 19.5,132.46 121.3,25.46 250.07,22.23"
       id="path3" /><path
       fill="#fe7c19"
       d="m 241.69,144.32 c 3.3,-0.68 7,-0.67 10.38,-0.75 23.21,-0.57 49.07,5.6 69.82,15.95 2.9,1.44 5.9,2.8 8.6,4.58 l 0.22,0.15 c 1.67,1.85 4.5,3.05 6.53,4.53 2.83,2.05 5.54,4.3 8.25,6.5 a 145,145 0 0 1 15.05,14.2 c 1.6,1.75 3,3.7 4.6,5.44 0.3,0.33 0.44,0.57 0.6,0.98 1.5,5.01 4.2,9.29 6.62,13.87 a 96,96 0 0 1 4.6,10.25 c 7.87,20.45 6.98,36.17 22.58,54.24 3.38,3.9 7.07,7.72 11.34,10.65 -1.85,1.86 -3.44,4.07 -5.09,6.12 q -3.06,3.8 -6.3,7.42 c 3.99,4.4 7.25,10.54 11.7,14.34 -5.6,6.7 -12.44,11.68 -19.44,16.8 -24.01,17.56 -46.02,27.76 -74.5,35.93 -10.53,3.02 -21.5,5.66 -32.42,6.63 -3.8,0.34 -7.66,0.65 -11.47,0.63 l -0.21,0.04 c -8.26,1.33 -20.8,0.87 -29.26,0.5 A 222,222 0 0 1 139.81,341.84 c -8.35,-4.92 -16.27,-10.44 -24.24,-15.94 -3.94,-2.27 -11.38,-9.45 -14.02,-13.09 5.07,-4.12 9.25,-9.51 13.6,-14.36 -4.85,-3.8 -9.06,-8.6 -13.11,-13.22 q 1.8,-1.04 3.47,-2.28 c 18.48,-14.04 29.59,-37.36 35.83,-59.11 1.03,-3.6 2.18,-7.29 2.89,-10.97 0.9,-4.7 0.73,-9.44 1.38,-14.14 l 0.04,-0.25 c 3.3,-1.93 7.5,-7.8 10.17,-10.81 5.77,-6.55 11.99,-12.9 19.51,-17.41 2,-1.51 4.9,-3.02 6.37,-5.02 4.5,-3.04 9.65,-5.4 14.58,-7.64 7.86,-3.57 15.97,-6.95 24.34,-9.15 6.92,-1.82 14.03,-2.9 21.07,-4.13"
       id="path4" /><path
       fill="#fefefe"
       d="m 241.69,144.32 c 3.3,-0.68 7,-0.67 10.38,-0.75 23.21,-0.57 49.07,5.6 69.82,15.95 2.9,1.44 5.9,2.8 8.6,4.58 l 0.22,0.15 c 1.67,1.85 4.5,3.05 6.53,4.53 2.83,2.05 5.54,4.3 8.25,6.5 a 145,145 0 0 1 15.05,14.2 c 1.6,1.75 3,3.7 4.6,5.44 0.3,0.33 0.44,0.57 0.6,0.98 1.5,5.01 4.2,9.29 6.62,13.87 a 96,96 0 0 1 4.6,10.25 c 7.87,20.45 6.98,36.17 22.58,54.24 3.38,3.9 7.07,7.72 11.34,10.65 -1.85,1.86 -3.44,4.07 -5.09,6.12 q -3.06,3.8 -6.3,7.42 c 3.99,4.4 7.25,10.54 11.7,14.34 -5.6,6.7 -12.44,11.68 -19.44,16.8 -24.01,17.56 -46.02,27.76 -74.5,35.93 -10.53,3.02 -21.5,5.66 -32.42,6.63 -3.8,0.34 -7.66,0.65 -11.47,0.63 l -0.21,0.04 c -8.26,1.33 -20.8,0.87 -29.26,0.5 A 222,222 0 0 1 139.81,341.84 c -8.35,-4.92 -16.27,-10.44 -24.24,-15.94 4.27,-2.8 8.33,-9.85 12.72,-13.5 4.9,-4.25 12.32,-10.96 17.8,-14.04 -7.49,-2.54 -15.15,-5.86 -21.88,-10 4.92,-1.68 10.02,-5.08 14.68,-7.5 18.02,-7.8 33.42,-11.36 53.03,-11.29 10.17,0.04 19.06,0.6 29.08,2.68 11.04,2.28 21.6,6.2 32.23,9.83 9.88,3.39 19.88,6.96 30.04,9.41 16.45,3.96 34.74,5.3 51.56,3.23 1.61,4.84 5.62,9.7 9.96,12.37 4.39,2.7 9.83,4.14 14.92,2.86 7.88,-1.98 13.9,-8.74 17.96,-15.43 3.12,-1.17 6.4,-1.95 9.55,-3.03 2.77,-0.94 5.43,-2.2 8.13,-3.3 -3.35,-4.58 -6.97,-9.23 -9.93,-14.05 -3.5,-5.72 -6.25,-12.12 -8.7,-18.36 -2.1,-5.37 -3.38,-10.99 -5.1,-16.48 -4.11,-13.11 -9.74,-25.63 -18.3,-36.46 -17.66,-22.34 -43.91,-38.47 -72.22,-42.74 -4.96,-0.74 -10.04,-1.54 -15.06,-1.77 -4.8,-0.22 -9.6,0.1 -14.38,-0.45 -4.05,-3.64 -7.4,-8.8 -9.97,-13.56"
       id="path5" /><path
       fill="#ddb99d"
       d="m 115.57,325.9 c 4.26,-2.8 8.32,-9.85 12.72,-13.5 1.31,2.05 11.27,8.32 14.04,10.02 a 290,290 0 0 0 66.11,30.34 1732,1732 0 0 0 34.05,10.17 c 2.77,0.8 5.61,1.37 8.36,2.25 4.78,1.52 9.63,3.02 14.3,4.83 1.8,0.69 4.39,2.23 5.98,2.66 0.44,0.11 0.9,0.06 1.34,0.06 l 0.89,0.05 -0.21,0.04 c -8.26,1.33 -20.8,0.87 -29.26,0.5 A 222,222 0 0 1 139.81,341.84 c -8.35,-4.92 -16.27,-10.44 -24.24,-15.94"
       id="path6" /><path
       fill="#c54d00"
       d="m 145.64,198.48 c 3.3,-1.93 7.51,-7.8 10.17,-10.82 5.77,-6.54 12,-12.89 19.51,-17.4 1.16,1.32 3.05,2.27 4.53,3.22 3.77,2.43 7.67,4.74 10.77,8.01 -19.76,15.26 -28.51,31.2 -36.24,54.58 -2.37,7.16 -4.28,14.35 -6.94,21.43 q -1.8,4.95 -3.88,9.78 c -1.25,2.9 -4.57,8.46 -4.8,11.4 -0.06,0.7 0.04,1.47 0.12,2.17 -4.66,2.43 -9.76,5.83 -14.68,7.51 6.73,4.14 14.4,7.45 21.88,10 -5.48,3.07 -12.9,9.79 -17.8,14.04 -4.4,3.64 -8.45,10.7 -12.72,13.5 -3.94,-2.28 -11.38,-9.45 -14.02,-13.09 5.07,-4.12 9.25,-9.51 13.6,-14.37 -4.85,-3.8 -9.06,-8.6 -13.11,-13.2 q 1.8,-1.05 3.47,-2.3 c 18.48,-14.03 29.59,-37.35 35.83,-59.1 1.03,-3.61 2.18,-7.3 2.89,-10.97 0.9,-4.7 0.73,-9.44 1.38,-14.15 z"
       id="path7" /><path
       fill="#030a11"
       d="m 333.64,267.45 0.2,-0.94 c 0.17,-0.1 0.31,-0.26 0.5,-0.3 1.1,-0.29 7.12,0.06 8.67,0.05 11.76,0 23.57,-0.24 35.33,0.05 -0.13,5.83 -0.04,11.67 -0.21,17.5 -0.08,2.65 -0.91,8.56 -0.47,10.71 -4.06,6.69 -10.07,13.46 -17.95,15.43 -5.1,1.28 -10.53,-0.16 -14.92,-2.86 -4.34,-2.66 -8.35,-7.53 -9.96,-12.37 -1.2,-4.8 -1.08,-9.67 -1.1,-14.58 -0.13,-4.22 -0.08,-8.46 -0.09,-12.69"
       id="path8" /><path
       fill="#fefefe"
       d="m 290.7,261.25 a 44,44 0 0 1 9.8,-4.54 c 2.23,-0.68 5.55,-1.67 7.9,-1.38 3.36,0.43 20.14,8.66 24.2,10.86 0.8,0.43 0.76,0.37 1.03,1.26 0.01,4.23 -0.04,8.47 0.09,12.7 l -0.12,-0.03 c -3.63,-0.67 -7.01,-2.9 -10.35,-4.42 l -18.4,-8.39 c -4.66,-2.13 -9.3,-4.4 -14.15,-6.06"
       id="path9" /><path
       fill="#030a11"
       d="m 216.7,217.81 a 19.3,19.3 0 1 1 3.48,38.43 19.3,19.3 0 0 1 -3.48,-38.43 m 120.24,0.15 a 19.05,19.05 0 1 1 1.73,38.06 19.05,19.05 0 0 1 -1.73,-38.06"
       id="path10" /><path
       fill="url(#b)"
       d="m 120.46,101.96 c 0.18,0.22 0.24,0.26 0.34,0.57 0.66,2.1 0.25,25.73 0.25,29.97 l -0.06,39.26 c 0,8.18 0.15,16.4 -0.06,24.58 a 72,72 0 0 1 -0.7,9.26 c -1.83,11.72 -7.07,26.95 -12.91,37.25 -7.55,13.3 -16.96,22.63 -28.88,32 -2.9,2.29 -6.11,5.32 -9.72,6.33 3.17,3.89 6.08,7.98 9.07,12.01 2.24,3.04 4.65,6.61 7.53,9.05 -4.52,7.2 -10.22,13.52 -15.05,20.5 3.99,2.77 7.46,6.48 11.2,9.6 3.57,2.98 7.65,5.36 11.35,8.17 3.62,2.75 6.86,5.97 10.55,8.63 6.15,4.43 12.76,8.3 19.2,12.29 3.69,2.28 7.6,4.44 10.86,7.31 -1.67,4.5 -2.18,9.57 -3.2,14.27 a 610,610 0 0 1 -6.05,25.37 c -0.32,1.43 -0.52,2.89 -0.74,4.34 -2.96,-2.8 -6.37,-5.13 -9.36,-7.95 A 209,209 0 0 1 79,362.2 204,204 0 0 1 49.62,275.2 c -0.71,-6.5 -1.36,-13 -1.38,-19.54 -0.03,-13.76 2.14,-31.02 5.33,-44.43 8.59,-36.11 23.08,-64.81 48.34,-92.2 4.89,-5.3 12.57,-13.38 18.55,-17.06"
       id="path11"
       style="fill:url(#b)" /><path
       fill="#4a4d57"
       d="m 391.28,132.02 c -0.13,-6.5 -0.15,-12.97 -0.15,-19.47 0,-3.4 -0.3,-7.1 0.15,-10.47 1.07,-0.1 1.96,0.7 2.76,1.35 9.4,7.72 17.4,16.34 25.08,25.74 17.01,20.86 26.5,39.1 34.36,64.74 a 212,212 0 0 1 7.27,30.83 c 0.85,5.58 1.27,11.28 1.8,16.9 1.07,11.64 0.64,22.77 -0.56,34.36 -0.41,3.94 -0.7,7.93 -1.32,11.85 a 201,201 0 0 1 -32.92,83.11 c -2.48,3.58 -4.95,7.17 -7.73,10.52 -7.08,8.51 -15.38,17.64 -23.67,24.95 -2.3,2.02 -4.85,3.68 -7.19,5.63 -1.53,-5.08 -12.02,-41.69 -11.41,-43.74 2.36,-2.51 9.93,-5.77 13.32,-7.77 4.83,-2.86 9.62,-5.91 14.3,-9.03 5.74,-3.83 10.8,-8.19 16.16,-12.51 3.08,-2.49 6.3,-4.81 9.32,-7.35 3.54,-2.98 6.87,-6.25 10.6,-8.98 -5.1,-6.82 -10.44,-13.45 -15.43,-20.36 2.42,-2.4 16.44,-19.69 16.46,-21.08 v -0.07 c -8.37,-6.2 -16.75,-12.26 -24,-19.78 -12,-12.46 -17.19,-26.2 -22.41,-42.36 -1.75,-5.4 -3.65,-10.78 -4.43,-16.43 -1.05,-7.6 -0.45,-16.67 -0.48,-24.44 -0.04,-15.37 -0.13,-30.77 0.12,-46.14"
       id="path12" /><path
       fill="#707279"
       d="m 391.45,126.51 c 3.18,2.9 5.94,6.25 8.76,9.49 19.6,22.55 32.66,49.07 39.64,78.09 1.94,8.05 3.66,16.77 4.02,25.06 0.33,7.41 1.3,37.33 -1.4,42.01 -8.36,-6.19 -16.74,-12.25 -23.99,-19.78 -12,-12.45 -17.2,-26.2 -22.42,-42.35 -1.74,-5.41 -3.64,-10.78 -4.42,-16.43 -1.05,-7.6 -0.46,-16.67 -0.48,-24.45 -0.05,-15.37 -0.14,-30.77 0.12,-46.13 0.34,-1.83 0.21,-3.66 0.17,-5.51 M 153.89,77.15 c 4.12,-1.9 7.98,-4.92 12.06,-7.07 A 181,181 0 0 1 197.81,57.15 195.8,195.8 0 0 1 336,65.6 c 4.56,2 9.23,4.04 13.58,6.48 2.64,1.49 5.1,3.33 7.78,4.73 l 0.27,0.14 c -5.46,1.7 -10.27,4.2 -15.23,7 -2.2,1.24 -4.36,2.62 -6.65,3.69 -17.03,10.16 -33.22,21.31 -47.33,35.35 -5.95,-0.46 -11.77,-1.76 -17.67,-2.56 -6.25,-0.85 -12.71,-1 -19,-0.8 q -6.8,0.21 -13.52,1.31 c -4.89,0.77 -9.87,1.85 -14.84,1.74 -10.18,-11.5 -33.34,-28.17 -47.2,-34.8 -1.62,-0.54 -3.28,-1.59 -4.8,-2.39 -5.5,-2.9 -11.48,-6.88 -17.51,-8.34 z"
       id="path13" /><path
       fill="#4a4d57"
       d="m 153.89,77.15 c 4.12,-1.9 7.98,-4.92 12.06,-7.07 A 181,181 0 0 1 197.81,57.15 195.8,195.8 0 0 1 336,65.6 c 4.56,2 9.23,4.04 13.58,6.48 2.64,1.49 5.1,3.33 7.78,4.73 l 0.27,0.14 c -5.46,1.7 -10.27,4.2 -15.23,7 -2.2,1.24 -4.36,2.62 -6.65,3.69 -1.25,-1.62 -5.44,-2.57 -7.39,-3.37 -2.42,-0.99 -4.78,-2.12 -7.22,-3.05 A 211,211 0 0 0 273.4,68.96 c -5.57,-0.7 -11.3,-0.71 -16.9,-0.72 -5.94,0 -11.95,-0.11 -17.86,0.48 -4,0.4 -7.99,1.3 -11.93,2.06 -13.89,2.7 -26.45,6.32 -39.46,11.94 -1.94,0.84 -9.6,3.67 -10.7,4.7 -0.17,0.17 -0.25,0.29 -0.37,0.47 -1.61,-0.55 -3.27,-1.6 -4.79,-2.4 -5.5,-2.9 -11.48,-6.88 -17.51,-8.34 z"
       id="path14" /><path
       fill="#fefefe"
       d="m 344.26,383.39 c 2.7,-1.3 7.75,-4.28 10.54,-4.35 0.5,0.38 0.68,0.78 0.84,1.36 0.5,1.78 0.65,3.72 1.03,5.54 0.7,3.32 1.56,6.63 2.41,9.92 q 2.33,8.79 4.86,17.53 c 1.45,4.88 3.23,9.77 3.85,14.84 l 0.03,0.24 c -7.58,3.53 -14.65,8.15 -22.25,11.75 -26.93,12.74 -56.57,20.51 -86.46,20.56 -6.8,0 -16.3,0.5 -22.82,-1.04 -9.37,-8.18 -15.9,-26.82 -19.01,-38.72 -0.68,-2.58 -0.96,-5.24 -1.61,-7.82 l -0.07,-0.27 -0.03,-0.13 c -0.58,-5.7 -0.54,-11.62 -0.63,-17.35 3.85,0.89 9.37,1.2 13.5,1.77 19.86,2.7 39.55,2.22 59.41,-0.27 5.5,-0.68 10.97,-1.34 16.4,-2.45 13.58,-2.8 26.84,-6.83 40.01,-11.11"
       id="path15" /><path
       fill="#ddb99d"
       d="m 214.94,395.45 c 3.85,0.89 9.37,1.2 13.5,1.76 19.86,2.71 39.55,2.22 59.41,-0.26 5.5,-0.69 10.97,-1.34 16.4,-2.46 13.58,-2.78 26.84,-6.82 40.01,-11.1 l -0.16,0.14 c -0.44,0.4 -0.71,0.72 -1,1.24 -5,9.35 -35.97,20.87 -46.69,24.03 -14.54,4.28 -32,6.4 -47.18,6.21 -7.98,-0.1 -15.84,-0.8 -23.79,-1.49 -3.25,-0.28 -6.61,-0.15 -9.84,-0.59 l -0.03,-0.14 c -0.58,-5.7 -0.54,-11.61 -0.63,-17.34"
       id="path16" /><path
       fill="#c54d00"
       d="m 144.92,428.73 0.12,-1.03 c 1.1,-8.3 3.95,-17.5 5.85,-25.76 l 3.96,-16.7 c 0.4,-1.74 0.53,-3.67 1.07,-5.35 0.18,-0.59 0.3,-0.73 0.77,-1.1 3.89,0.09 14.54,5.34 19.23,7.08 a 188,188 0 0 0 12.26,3.96 c 8.76,2.59 17.96,3.32 26.76,5.62 0.09,5.73 0.05,11.65 0.63,17.35 l 0.03,0.13 0.07,0.27 c 0.65,2.58 0.93,5.23 1.6,7.82 3.12,11.9 9.65,30.54 19.01,38.72 -3.82,0.14 -8.05,-0.9 -11.82,-1.52 -10.4,-1.73 -20.71,-3.76 -30.78,-6.99 -4.89,-1.56 -9.56,-3.53 -14.37,-5.3 a 175,175 0 0 1 -34.39,-17.2"
       id="path17" /><path
       fill="#fe7c19"
       d="m 178.02,403.82 c 7.48,1.29 31.59,10.2 37.55,8.98 l 0.03,0.13 0.07,0.27 c 0.65,2.58 0.94,5.23 1.61,7.82 3.11,11.9 9.65,30.54 19,38.72 -3.82,0.14 -8.04,-0.9 -11.82,-1.52 -10.4,-1.73 -20.7,-3.76 -30.77,-6.99 -4.9,-1.56 -9.57,-3.53 -14.38,-5.3 l 0.02,-0.3 0.03,-0.46 c 0.13,-2.23 -0.69,-4.63 -1.05,-6.84 a 64,64 0 0 1 -0.7,-6.7 c -0.3,-5.19 -0.5,-10.48 -0.3,-15.68 0.14,-4.05 0.58,-8.08 0.71,-12.13"
       id="path18" /><path
       fill="#ddb99d"
       d="m 145.19,99.3 c 5.87,2.54 11.48,6.19 16.63,9.96 6.87,4.18 13.46,8.72 20.09,13.26 5.04,3.14 10.7,6.8 14.42,11.46 -3.42,2.09 -12.47,5.53 -14.51,8.55 -0.86,2.82 -0.37,19.06 -0.13,22.7 -1.47,2.01 -4.37,3.52 -6.37,5.03 -7.52,4.52 -13.73,10.86 -19.51,17.4 -2.66,3.02 -6.86,8.89 -10.17,10.82 0.14,-2.18 -0.05,-4.41 -0.07,-6.6 l 0.02,-12.62 0.1,-38.92 0.01,-23.46 c 0.03,-5.65 0.46,-12.02 -0.51,-17.58"
       id="path19" /><path
       fill="#fefefe"
       d="m 161.83,109.26 c 6.87,4.18 13.46,8.72 20.08,13.26 5.04,3.14 10.7,6.8 14.43,11.46 -3.42,2.1 -12.47,5.53 -14.51,8.55 -0.38,0.27 -0.23,0.22 -0.58,0.32 -6.29,1.79 -14,11.01 -20.84,14.36 0.37,-11.19 0.09,-22.41 0.22,-33.6 0.05,-3.95 -0.3,-8.42 0.27,-12.3 0.15,-1.01 0.25,-1.3 0.93,-2.05"
       id="path20" /><path
       fill="#ddb99d"
       d="m 181.91,122.52 c 5.04,3.14 10.7,6.8 14.43,11.46 -3.43,2.09 -12.48,5.53 -14.52,8.55 v -0.13 l -0.21,-0.93 c -0.37,-1.62 -0.3,-15.42 -0.12,-17.58 0.04,-0.52 0.2,-0.9 0.42,-1.37"
       id="path21" /><path
       fill="#fefefe"
       d="m 328.77,123.38 c 7.06,-5.42 14.49,-10.34 21.95,-15.2 5,-3.25 10.02,-6.77 15.52,-9.15 -0.33,8.44 -0.2,16.92 -0.19,25.36 0.01,5.2 -0.18,10.46 -0.01,15.65 -0.1,18.6 0.33,37.27 -0.3,55.85 a 3,3 0 0 0 -0.6,-0.97 c -1.6,-1.75 -3,-3.69 -4.6,-5.45 a 145,145 0 0 0 -15.06,-14.19 c -2.7,-2.2 -5.42,-4.46 -8.24,-6.5 -2.04,-1.48 -4.86,-2.69 -6.53,-4.53 0.11,-2.46 -0.08,-5.02 -0.05,-7.5 0.05,-4.7 0.34,-9.53 -0.08,-14.21 l -0.32,-0.96 c -4.85,-2.24 -9.3,-5.64 -14.66,-6.56 2.68,-4.98 8.5,-8.62 13.17,-11.64"
       id="path22" /><path
       fill="#ddb99d"
       d="m 351.23,140.15 c 4.94,-0.02 9.87,-0.4 14.81,-0.1 -0.09,18.6 0.33,37.27 -0.3,55.85 a 3,3 0 0 0 -0.6,-0.98 c -1.6,-1.75 -2.99,-3.69 -4.6,-5.44 a 145,145 0 0 0 -15.05,-14.2 c -2.7,-2.2 -5.42,-4.45 -8.24,-6.5 -2.05,-1.47 -4.87,-2.68 -6.54,-4.53 0.12,-2.46 -0.07,-5.02 -0.05,-7.5 0.05,-4.7 0.34,-9.53 -0.08,-14.2 4.7,1.63 8.7,5.62 12.68,8.5 a 75,75 0 0 0 8.3,5.06 c -0.06,-5.32 -0.27,-10.64 -0.33,-15.96 m -35.63,-5.13 c 2.68,-4.98 8.5,-8.62 13.17,-11.64 0.37,0.61 0.77,1.24 0.88,1.95 0.23,1.53 0.8,15 0.6,16.25 -4.84,-2.24 -9.3,-5.64 -14.65,-6.56"
       id="path23" /></g></svg>
